<svg width="41" height="42" viewBox="0 0 41 42" fill="none" xmlns="http://www.w3.org/2000/svg">
<g id="Group 6">
<path id="Rectangle 30" d="M20.3534 40.9995C9.2247 41.0373 0.172535 32.0463 0.1348 20.9176C0.097629 9.95503 8.95442 1.03797 19.917 1.0008L40.0673 0.932473L40.2029 40.9322L20.3534 40.9995Z" fill="#395A44"/>
<path id="Union" fill-rule="evenodd" clip-rule="evenodd" d="M23.2145 11.1209C23.2109 10.0571 22.3456 9.19774 21.2819 9.20135C20.2182 9.20495 19.3588 10.0702 19.3624 11.1339L19.3735 14.3985C19.3817 16.8369 17.4231 18.8262 14.9849 18.8558L12.7262 18.8832C11.5243 18.8978 10.5611 19.8828 10.5734 21.0847C10.5857 22.2899 11.574 23.2563 12.7792 23.2417L14.9844 23.2149C17.4185 23.1853 19.4099 25.146 19.4182 27.5803L19.4302 31.127C19.4338 32.1907 20.299 33.0501 21.3628 33.0465C22.4265 33.0429 23.2859 32.1777 23.2823 31.1139L23.2694 27.3066C23.2615 24.9855 25.126 23.0918 27.447 23.0636L29.4926 23.0387C30.6945 23.0241 31.6577 22.0392 31.6454 20.8372C31.6331 19.632 30.6448 18.6657 29.4397 18.6803L27.446 18.7045C25.1293 18.7326 23.234 16.8665 23.2261 14.5496L23.2145 11.1209Z" fill="#CFE3CC"/>
</g>
</svg>
