<svg width="47" height="47" viewBox="0 0 47 47" fill="none" xmlns="http://www.w3.org/2000/svg">
<g id="Group 6">
<path id="Rectangle 30" d="M0.531929 23.6332C0.64104 10.8546 11.0886 0.583874 23.8673 0.692985C36.4552 0.800468 46.5725 11.0921 46.4651 23.68L46.2702 46.5048L0.339987 46.1126L0.531929 23.6332Z" fill="#395A44"/>
<path id="Union" fill-rule="evenodd" clip-rule="evenodd" d="M34.8168 27.1473C36.0299 27.1576 37.0217 26.1826 37.0321 24.9695C37.0424 23.7564 36.0674 22.7646 34.8543 22.7542L30.9898 22.7212C28.2457 22.6978 26.0333 20.467 26.0325 17.7228L26.0318 15.0971C26.0315 13.7169 24.9138 12.5976 23.5336 12.5952C22.1495 12.5928 21.0263 13.7144 21.0267 15.0985L21.0273 17.5965C21.0281 20.3726 18.7652 22.6169 15.9892 22.5931L11.8669 22.5579C10.6538 22.5476 9.66195 23.5226 9.65159 24.7357C9.64123 25.9488 10.6163 26.9406 11.8294 26.951L16.2489 26.9887C18.8962 27.0113 21.0305 29.1634 21.0312 31.8107L21.0318 34.127C21.0322 35.5071 22.1499 36.6264 23.53 36.6289C24.9141 36.6313 26.0374 35.5097 26.037 34.1256L26.0364 31.869C26.0357 29.2267 28.1894 27.0907 30.8316 27.1133L34.8168 27.1473Z" fill="#CFE3CC"/>
</g>
</svg>
