<svg width="41" height="41" viewBox="0 0 41 41" fill="none" xmlns="http://www.w3.org/2000/svg">
<g id="Group 6">
<path id="Rectangle 30" d="M20.3534 40.1343C9.2247 40.172 0.172535 31.1811 0.1348 20.0524C0.097629 9.0898 8.95442 0.172735 19.917 0.135563L40.0673 0.0672385L40.2029 40.067L20.3534 40.1343Z" fill="#CFE3CC"/>
<path id="Union" fill-rule="evenodd" clip-rule="evenodd" d="M23.2145 10.2556C23.2109 9.1919 22.3456 8.33251 21.2819 8.33611C20.2182 8.33972 19.3588 9.20496 19.3624 10.2687L19.3735 13.5333C19.3817 15.9716 17.4231 17.9609 14.9849 17.9905L12.7262 18.018C11.5243 18.0326 10.5611 19.0175 10.5734 20.2195C10.5857 21.4247 11.574 22.3911 12.7792 22.3764L14.9844 22.3497C17.4185 22.3201 19.4099 24.2808 19.4182 26.7151L19.4302 30.2618C19.4338 31.3255 20.299 32.1849 21.3628 32.1813C22.4265 32.1777 23.2859 31.3124 23.2823 30.2487L23.2694 26.4414C23.2615 24.1202 25.126 22.2265 27.447 22.1983L29.4926 22.1735C30.6945 22.1589 31.6577 21.1739 31.6454 19.972C31.6331 18.7668 30.6448 17.8004 29.4397 17.815L27.446 17.8393C25.1293 17.8674 23.234 16.0013 23.2261 13.6844L23.2145 10.2556Z" fill="#395A44"/>
</g>
</svg>
